# xmcd CD database file
#
# Track frame offsets:
#	150
#	30160
#	40344
#	47708
#	77256
#	98009
#	130524
#	150650
#	186053
#	214689
#	270099
#	284361
#
# Disc length: 3977 seconds
#
# Revision: 0
# Processed by: cddbd v1.5.2PL0 Copyright (c) Steve Scherf et al.
# Submitted via: CDex 1.70beta2
#
DISCID=880f870c
DTITLE=Various Artist - Collage - Performances by the IUPUI Faculty
DYEAR=2009
DGENRE=Jazz
TTITLE0=The Afro-Cuban Ensemble - Invitation
TTITLE1=John Alvarado - Two Venezuelan Waltes: El Negrito
TTITLE2=John Alvarado - Two Venezuelan Waltes: La Gatica
TTITLE3=John Vander Gheynst Jazz Orchestra - A Song Remembered (For Jack Gilfoy)
TTITLE4=EJ Choe - Impromptu, Op 90, No. 2
TTITLE5=Scott Deal - Solar Wind
TTITLE6=IUPUI Chamber Ensemble - Every Kind For Itself and Its Own
TTITLE7=Jodi Sowers and EJ Choe - Fantasie Pastoral Hongroise
TTITLE8=Michael Drews - Conflux
TTITLE9=John Vander Gheynst Jazz Orchestra - Just Passing Through
TTITLE10=David Mannell and Jennifer Seaver Stokes - A Bit of Earth
TTITLE11=Chuiyuan Meng - The Yellow River: II. Ode to the Yellow River
EXTD=YEAR: 2009
EXTT0=
EXTT1=
EXTT2=
EXTT3=
EXTT4=
EXTT5=
EXTT6=
EXTT7=
EXTT8=
EXTT9=
EXTT10=
EXTT11=
PLAYORDER=
